<svg fill="#ffffff" height="200px" width="200px" version="1.1" id="Layer_1" xmlns="http://www.w3.org/2000/svg" xmlns:xlink="http://www.w3.org/1999/xlink" viewBox="0 0 512 512" xml:space="preserve" stroke="#ffffff"><g id="SVGRepo_bgCarrier" stroke-width="0"></g><g id="SVGRepo_tracerCarrier" stroke-linecap="round" stroke-linejoin="round"></g><g id="SVGRepo_iconCarrier"> <g> <g> <g> <path d="M512,195.478v-3.32c0-11.906-9.687-21.593-21.593-21.593H191.902c-11.908,0-21.595,9.687-21.595,21.593v3.32 c0,11.906,9.687,21.593,21.595,21.593h0.275v38.286h-32.045l-5.938-123.655c-0.214-4.459-4.004-7.912-8.463-7.686 c-4.459,0.214-7.901,4.002-7.686,8.463l5.901,122.879h-63.88l8.319-173.224h47.241l1.174,24.432 c0.214,4.459,3.985,7.893,8.463,7.686c4.459-0.214,7.901-4.002,7.686-8.463l-2.535-52.778l-0.466-9.689v-0.001l-1.303-27.152 h2.188c4.465,0,8.084-3.62,8.084-8.084S155.298,0,150.833,0h-10.67H83.848h-10.67c-4.465,0-8.084,3.62-8.084,8.084 s3.62,8.084,8.084,8.084h2.188L74.062,43.32c0,0.001,0,0.002,0,0.003l-1.457,30.339l-8.726,181.695H21.596 c-11.906,0-21.595,9.687-21.595,21.595v3.319c0,9.85,6.635,18.161,15.665,20.747v165.32C6.636,468.924,0,477.237,0,487.087v3.319 C0,502.313,9.687,512,21.595,512h397.314c4.466,0,8.084-3.618,8.084-8.084c0-4.466-3.619-8.084-8.084-8.084H21.595 c-2.991,0-5.426-2.434-5.426-5.426v-3.319c0-2.991,2.434-5.426,5.426-5.426h2.156h35.296c0.008,0,0.015,0.001,0.023,0.001H164.68 c0.008,0,0.015-0.001,0.023-0.001h35.538c0.008,0,0.015,0.001,0.023,0.001h288.875c0.008,0,0.015-0.001,0.023-0.001h1.249 c2.991,0,5.425,2.435,5.425,5.426v3.319c0,2.992-2.434,5.426-5.425,5.426h-43.622c-4.466,0-8.084,3.619-8.084,8.084 c0,4.466,3.619,8.084,8.084,8.084h43.619c11.906,0,21.593-9.687,21.593-21.595v-3.319c0-9.525-6.207-17.615-14.781-20.476 V215.953C505.795,213.092,512,205.003,512,195.478z M91.553,16.168h40.905l0.935,19.458H90.619L91.553,16.168z M89.841,51.795 h44.327l0.68,14.17H89.161L89.841,51.795z M156.594,465.492H67.152v-18.85h89.443V465.492z M156.594,430.472H67.152V411.62 h89.443V430.472z M156.594,395.452H67.152V376.6h89.443V395.452z M192.177,465.492h-19.414v-26.934v-35.021v-35.02 c0-4.466-3.62-8.084-8.084-8.084H59.068c-4.465,0-8.084,3.618-8.084,8.084v35.02v35.021v26.934H31.835V301.867h160.342V465.492z M192.177,285.699H23.75h-2.155c-2.991,0-5.426-2.435-5.426-5.426v-3.32c0-2.991,2.434-5.426,5.426-5.426h49.99h80.842h39.75 V285.699z M495.832,195.478c0,2.991-2.434,5.425-5.425,5.425h-36.074c-4.466,0-8.084,3.62-8.084,8.084 c0,4.465,3.618,8.084,8.084,8.084h26.718v248.42H208.345v-171.71v-76.711h216.884c4.466,0,8.084-3.62,8.084-8.084 c0-4.465-3.618-8.084-8.084-8.084H191.902c-2.992,0-5.426-2.434-5.426-5.425v-3.32c0-2.991,2.434-5.425,5.426-5.425h298.505 c2.991,0,5.425,2.434,5.425,5.425V195.478z"></path> <path d="M59.068,345.342h105.611c4.465,0,8.084-3.618,8.084-8.084c0-4.465-3.62-8.084-8.084-8.084H59.068 c-4.465,0-8.084,3.62-8.084,8.084C50.983,341.724,54.603,345.342,59.068,345.342z"></path> <path d="M345.322,236.682h-53.044h-53.041c-4.465,0-8.084,3.62-8.084,8.084v38.52v38.52v38.52v38.52 c0,0.019,0.003,0.038,0.003,0.057s-0.003,0.038-0.003,0.057v38.52c0,4.466,3.62,8.085,8.084,8.085h53.041h53.044h53.044h53.042 c4.466,0,8.084-3.62,8.084-8.084v-38.52c0-0.019-0.003-0.038-0.003-0.057s0.003-0.038,0.003-0.057v-38.52v-38.521v-38.52v-38.52 c0-4.465-3.618-8.084-8.084-8.084h-53.042H345.322z M247.321,252.849h36.873v22.351h-36.873V252.849z M284.193,429.394h-36.873 v-22.351h36.873V429.394z M284.193,390.761h-36.873v-22.351h36.873V390.761z M284.193,352.241h-36.873V329.89h36.873V352.241z M284.195,313.721h-36.873V291.37h36.873V313.721z M337.239,429.394h-36.876v-22.351h36.876V429.394z M337.239,390.762h-36.876 V368.41h36.876V390.762z M337.239,352.241h-36.876V329.89h36.876V352.241z M337.239,313.721h-36.876V291.37h36.876V313.721z M337.239,275.202h-36.876V252.85h36.876V275.202z M390.283,429.394h-36.876v-22.351h36.876V429.394z M390.283,390.762h-36.876 V368.41h36.876V390.762z M390.283,352.241h-36.876V329.89h36.876V352.241z M390.283,313.721h-36.876V291.37h36.876V313.721z M390.283,275.202h-36.876V252.85h36.876V275.202z M443.325,390.761h-36.874v-22.351h36.874V390.761z M406.451,252.85h36.874 v22.351h-36.874V252.85z M406.451,291.37h36.874v22.351h-36.874V291.37z M406.451,329.89h36.874v22.351h-36.874V329.89z M406.451,407.044h36.874v22.351h-36.874V407.044z"></path> </g> </g> </g> </g></svg>